G04 Layer: BottomSilkLayer*
G04 EasyEDA v6.4.25, 2022-01-09T10:17:45+02:00*
G04 1d5209dc754949c1a3a8928359d51cf4,01251904fc36440d948a1dcf8ab803a9,10*
G04 Gerber Generator version 0.2*
G04 Scale: 100 percent, Rotated: No, Reflected: No *
G04 Dimensions in millimeters *
G04 leading zeros omitted , absolute positions ,4 integer and 5 decimal *
%FSLAX45Y45*%
%MOMM*%

%ADD15C,0.2032*%

%LPD*%
D15*
X813836Y5461000D02*
G01*
X957018Y5406453D01*
X813836Y5351909D02*
G01*
X957018Y5406453D01*
X847928Y5204635D02*
G01*
X834290Y5211455D01*
X820653Y5225089D01*
X813836Y5238727D01*
X813836Y5265999D01*
X820653Y5279636D01*
X834290Y5293273D01*
X847928Y5300090D01*
X868382Y5306908D01*
X902472Y5306908D01*
X922926Y5300090D01*
X936564Y5293273D01*
X950198Y5279636D01*
X957018Y5265999D01*
X957018Y5238727D01*
X950198Y5225089D01*
X936564Y5211455D01*
X922926Y5204635D01*
X847928Y5057363D02*
G01*
X834290Y5064180D01*
X820653Y5077818D01*
X813836Y5091455D01*
X813836Y5118727D01*
X820653Y5132364D01*
X834290Y5145999D01*
X847928Y5152819D01*
X868382Y5159636D01*
X902472Y5159636D01*
X922926Y5152819D01*
X936564Y5145999D01*
X950198Y5132364D01*
X957018Y5118727D01*
X957018Y5091455D01*
X950198Y5077818D01*
X936564Y5064180D01*
X922926Y5057363D01*
X1067836Y5461000D02*
G01*
X1136017Y5406453D01*
X1211018Y5406453D01*
X1067836Y5351909D02*
G01*
X1136017Y5406453D01*
X1609928Y5358726D02*
G01*
X1596290Y5365544D01*
X1582653Y5379181D01*
X1575836Y5392818D01*
X1575836Y5420090D01*
X1582653Y5433728D01*
X1596290Y5447362D01*
X1609928Y5454182D01*
X1630382Y5461000D01*
X1664472Y5461000D01*
X1684926Y5454182D01*
X1698564Y5447362D01*
X1712198Y5433728D01*
X1719018Y5420090D01*
X1719018Y5392818D01*
X1712198Y5379181D01*
X1698564Y5365544D01*
X1684926Y5358726D01*
X1664472Y5358726D01*
X1664472Y5392818D02*
G01*
X1664472Y5358726D01*
X1575836Y5313728D02*
G01*
X1719018Y5313728D01*
X1575836Y5313728D02*
G01*
X1719018Y5218272D01*
X1575836Y5218272D02*
G01*
X1719018Y5218272D01*
X1575836Y5173273D02*
G01*
X1719018Y5173273D01*
X1575836Y5173273D02*
G01*
X1575836Y5125544D01*
X1582653Y5105090D01*
X1596290Y5091455D01*
X1609928Y5084635D01*
X1630382Y5077818D01*
X1664472Y5077818D01*
X1684926Y5084635D01*
X1698564Y5091455D01*
X1712198Y5105090D01*
X1719018Y5125544D01*
X1719018Y5173273D01*
X1829836Y5406453D02*
G01*
X1973018Y5461000D01*
X1829836Y5406453D02*
G01*
X1973018Y5351909D01*
X1925292Y5440545D02*
G01*
X1925292Y5372364D01*
M02*
