G04 Layer: TopLayer*
G04 EasyEDA v6.4.25, 2022-01-09T10:17:45+02:00*
G04 1d5209dc754949c1a3a8928359d51cf4,01251904fc36440d948a1dcf8ab803a9,10*
G04 Gerber Generator version 0.2*
G04 Scale: 100 percent, Rotated: No, Reflected: No *
G04 Dimensions in millimeters *
G04 leading zeros omitted , absolute positions ,4 integer and 5 decimal *
%FSLAX45Y45*%
%MOMM*%

%ADD11C,0.4000*%
%ADD12R,0.8000X0.4000*%
%ADD13C,1.5748*%

%LPD*%
G36*
X737006Y4826508D02*
G01*
X733145Y4827270D01*
X729843Y4829454D01*
X727659Y4832756D01*
X726846Y4836668D01*
X724509Y5805932D01*
X725271Y5809792D01*
X727456Y5813094D01*
X730758Y5815330D01*
X734669Y5816092D01*
X2059584Y5816092D01*
X2063496Y5815330D01*
X2066798Y5813145D01*
X2068982Y5809843D01*
X2069744Y5805982D01*
X2074519Y4836718D01*
X2073757Y4832807D01*
X2071522Y4829505D01*
X2068220Y4827270D01*
X2064359Y4826508D01*
G37*

%LPC*%
G36*
X1472590Y4969103D02*
G01*
X1551432Y4969103D01*
X1557731Y4969814D01*
X1563217Y4971694D01*
X1568094Y4974793D01*
X1572209Y4978908D01*
X1575257Y4983784D01*
X1577187Y4989271D01*
X1577898Y4995570D01*
X1577898Y5023916D01*
X1578660Y5027828D01*
X1580896Y5031130D01*
X1584198Y5033314D01*
X1588058Y5034076D01*
X1728978Y5034127D01*
X1737715Y5035346D01*
X1745742Y5038039D01*
X1753107Y5042154D01*
X1760016Y5047894D01*
X1938680Y5226608D01*
X1944014Y5233670D01*
X1947773Y5241239D01*
X1950059Y5249367D01*
X1950923Y5258257D01*
X1950923Y5551424D01*
X1951583Y5555081D01*
X1953564Y5558282D01*
X1968703Y5568492D01*
X1978964Y5577535D01*
X1988007Y5587796D01*
X1995627Y5599176D01*
X2001672Y5611469D01*
X2006041Y5624423D01*
X2008733Y5637834D01*
X2009648Y5651500D01*
X2008733Y5665165D01*
X2006041Y5678576D01*
X2001672Y5691530D01*
X1995627Y5703824D01*
X1988007Y5715203D01*
X1978964Y5725464D01*
X1968703Y5734507D01*
X1957324Y5742127D01*
X1945030Y5748172D01*
X1932076Y5752541D01*
X1918665Y5755233D01*
X1905000Y5756148D01*
X1891334Y5755233D01*
X1877923Y5752541D01*
X1864969Y5748172D01*
X1852675Y5742127D01*
X1841296Y5734507D01*
X1831035Y5725464D01*
X1821992Y5715203D01*
X1814372Y5703824D01*
X1808327Y5691530D01*
X1803958Y5678576D01*
X1801266Y5665165D01*
X1800352Y5651500D01*
X1801266Y5637834D01*
X1803958Y5624423D01*
X1808327Y5611469D01*
X1814372Y5599176D01*
X1821992Y5587796D01*
X1831035Y5577535D01*
X1841296Y5568492D01*
X1856435Y5558282D01*
X1858416Y5555081D01*
X1859076Y5551424D01*
X1859076Y5281015D01*
X1858314Y5277154D01*
X1856130Y5273852D01*
X1711147Y5128869D01*
X1707845Y5126685D01*
X1703984Y5125923D01*
X1672082Y5125923D01*
X1668170Y5126685D01*
X1664868Y5128869D01*
X1662684Y5132171D01*
X1661922Y5136083D01*
X1662684Y5139944D01*
X1664868Y5143246D01*
X1684680Y5163108D01*
X1690014Y5170170D01*
X1693773Y5177739D01*
X1696059Y5185867D01*
X1696923Y5194757D01*
X1696923Y5551424D01*
X1697583Y5555081D01*
X1699564Y5558282D01*
X1714703Y5568492D01*
X1724964Y5577535D01*
X1734007Y5587796D01*
X1741627Y5599176D01*
X1747672Y5611469D01*
X1752041Y5624423D01*
X1754733Y5637834D01*
X1755648Y5651500D01*
X1754733Y5665165D01*
X1752041Y5678576D01*
X1747672Y5691530D01*
X1741627Y5703824D01*
X1734007Y5715203D01*
X1724964Y5725464D01*
X1714703Y5734507D01*
X1703324Y5742127D01*
X1691030Y5748172D01*
X1678076Y5752541D01*
X1664665Y5755233D01*
X1651000Y5756148D01*
X1637334Y5755233D01*
X1623923Y5752541D01*
X1610969Y5748172D01*
X1598676Y5742127D01*
X1587296Y5734507D01*
X1577035Y5725464D01*
X1567992Y5715203D01*
X1560372Y5703824D01*
X1554327Y5691530D01*
X1549958Y5678576D01*
X1547266Y5665165D01*
X1546352Y5651500D01*
X1547266Y5637834D01*
X1549958Y5624423D01*
X1554327Y5611469D01*
X1560372Y5599176D01*
X1567992Y5587796D01*
X1577035Y5577535D01*
X1587296Y5568492D01*
X1602435Y5558282D01*
X1604416Y5555081D01*
X1605076Y5551424D01*
X1605076Y5217515D01*
X1604314Y5213654D01*
X1602130Y5210352D01*
X1585671Y5193893D01*
X1582369Y5191658D01*
X1578457Y5190896D01*
X1472539Y5190896D01*
X1466240Y5190185D01*
X1460804Y5188305D01*
X1455877Y5185206D01*
X1451813Y5181092D01*
X1448714Y5176215D01*
X1446784Y5170728D01*
X1446072Y5164429D01*
X1446072Y5125567D01*
X1446784Y5119268D01*
X1448003Y5115864D01*
X1448562Y5112512D01*
X1448003Y5109159D01*
X1446784Y5105755D01*
X1446072Y5099405D01*
X1446072Y5060594D01*
X1446784Y5054244D01*
X1448003Y5050840D01*
X1448562Y5047488D01*
X1448003Y5044135D01*
X1446784Y5040731D01*
X1446072Y5034432D01*
X1446072Y4995570D01*
X1446784Y4989271D01*
X1448714Y4983784D01*
X1451813Y4978908D01*
X1455877Y4974793D01*
X1460804Y4971694D01*
X1466240Y4969814D01*
G37*
G36*
X967181Y4969103D02*
G01*
X1321460Y4969103D01*
X1327759Y4969814D01*
X1333195Y4971694D01*
X1338122Y4974793D01*
X1342186Y4978908D01*
X1345285Y4983784D01*
X1347216Y4989271D01*
X1347927Y4995570D01*
X1347927Y5034432D01*
X1347216Y5040731D01*
X1345285Y5046218D01*
X1342186Y5051094D01*
X1338122Y5055209D01*
X1333195Y5058308D01*
X1327759Y5060188D01*
X1321460Y5060899D01*
X989939Y5060899D01*
X986028Y5061661D01*
X982726Y5063896D01*
X937869Y5108752D01*
X935685Y5112054D01*
X934923Y5115915D01*
X934923Y5536692D01*
X935685Y5540603D01*
X937869Y5543854D01*
X941171Y5546090D01*
X945083Y5546852D01*
X967181Y5546852D01*
X973480Y5547563D01*
X978966Y5549493D01*
X983843Y5552541D01*
X987958Y5556656D01*
X991006Y5561533D01*
X992936Y5567019D01*
X993648Y5573318D01*
X993648Y5729681D01*
X992936Y5735980D01*
X991006Y5741466D01*
X987958Y5746343D01*
X983843Y5750458D01*
X978966Y5753506D01*
X973480Y5755436D01*
X967181Y5756148D01*
X810818Y5756148D01*
X804519Y5755436D01*
X799033Y5753506D01*
X794156Y5750458D01*
X790041Y5746343D01*
X786993Y5741466D01*
X785063Y5735980D01*
X784352Y5729681D01*
X784352Y5573318D01*
X785063Y5567019D01*
X786993Y5561533D01*
X790041Y5556656D01*
X794156Y5552541D01*
X799033Y5549493D01*
X804519Y5547563D01*
X810818Y5546852D01*
X832916Y5546852D01*
X836828Y5546090D01*
X840130Y5543854D01*
X842314Y5540603D01*
X843076Y5536692D01*
X843127Y5090922D01*
X844346Y5082184D01*
X847039Y5074158D01*
X851153Y5066792D01*
X856894Y5059883D01*
X935532Y4981295D01*
X942543Y4976012D01*
X950112Y4972253D01*
X958291Y4969916D01*
G37*
G36*
X1192784Y5099100D02*
G01*
X1321460Y5099100D01*
X1327759Y5099812D01*
X1333195Y5101691D01*
X1338122Y5104790D01*
X1342186Y5108905D01*
X1345285Y5113782D01*
X1347216Y5119268D01*
X1347927Y5125567D01*
X1347927Y5164429D01*
X1347216Y5170728D01*
X1345285Y5176215D01*
X1342186Y5181092D01*
X1338122Y5185206D01*
X1333195Y5188305D01*
X1327759Y5190185D01*
X1321460Y5190896D01*
X1215542Y5190896D01*
X1211630Y5191658D01*
X1208328Y5193893D01*
X1191869Y5210352D01*
X1189685Y5213654D01*
X1188923Y5217515D01*
X1188923Y5551424D01*
X1189583Y5555081D01*
X1191564Y5558282D01*
X1206703Y5568492D01*
X1216964Y5577535D01*
X1226007Y5587796D01*
X1233627Y5599176D01*
X1239672Y5611469D01*
X1244041Y5624423D01*
X1246733Y5637834D01*
X1247648Y5651500D01*
X1246733Y5665165D01*
X1244041Y5678576D01*
X1239672Y5691530D01*
X1233627Y5703824D01*
X1226007Y5715203D01*
X1216964Y5725464D01*
X1206703Y5734507D01*
X1195324Y5742127D01*
X1183030Y5748172D01*
X1170076Y5752541D01*
X1156665Y5755233D01*
X1143000Y5756148D01*
X1129334Y5755233D01*
X1115923Y5752541D01*
X1102969Y5748172D01*
X1090676Y5742127D01*
X1079296Y5734507D01*
X1069035Y5725464D01*
X1059992Y5715203D01*
X1052372Y5703824D01*
X1046327Y5691530D01*
X1041958Y5678576D01*
X1039266Y5665165D01*
X1038352Y5651500D01*
X1039266Y5637834D01*
X1041958Y5624423D01*
X1046327Y5611469D01*
X1052372Y5599176D01*
X1059992Y5587796D01*
X1069035Y5577535D01*
X1079296Y5568492D01*
X1094435Y5558282D01*
X1096416Y5555081D01*
X1097076Y5551424D01*
X1097127Y5192522D01*
X1098346Y5183784D01*
X1101039Y5175758D01*
X1105154Y5168392D01*
X1110894Y5161483D01*
X1161135Y5111343D01*
X1168146Y5106009D01*
X1175715Y5102250D01*
X1183894Y5099913D01*
G37*
G36*
X1397000Y5546852D02*
G01*
X1410665Y5547766D01*
X1424076Y5550458D01*
X1437030Y5554827D01*
X1449324Y5560872D01*
X1460703Y5568492D01*
X1470964Y5577535D01*
X1480007Y5587796D01*
X1487627Y5599176D01*
X1493672Y5611469D01*
X1498041Y5624423D01*
X1500733Y5637834D01*
X1501648Y5651500D01*
X1500733Y5665165D01*
X1498041Y5678576D01*
X1493672Y5691530D01*
X1487627Y5703824D01*
X1480007Y5715203D01*
X1470964Y5725464D01*
X1460703Y5734507D01*
X1449324Y5742127D01*
X1437030Y5748172D01*
X1424076Y5752541D01*
X1410665Y5755233D01*
X1397000Y5756148D01*
X1383334Y5755233D01*
X1369923Y5752541D01*
X1356969Y5748172D01*
X1344676Y5742127D01*
X1333296Y5734507D01*
X1323035Y5725464D01*
X1313992Y5715203D01*
X1306372Y5703824D01*
X1300327Y5691530D01*
X1295958Y5678576D01*
X1293266Y5665165D01*
X1292352Y5651500D01*
X1293266Y5637834D01*
X1295958Y5624423D01*
X1300327Y5611469D01*
X1306372Y5599176D01*
X1313992Y5587796D01*
X1323035Y5577535D01*
X1333296Y5568492D01*
X1344676Y5560872D01*
X1356969Y5554827D01*
X1369923Y5550458D01*
X1383334Y5547766D01*
G37*

%LPD*%
D11*
X1511988Y5145001D02*
G01*
X1601701Y5145001D01*
X1651000Y5194300D01*
X1651000Y5651500D01*
X1282011Y5145001D02*
G01*
X1192298Y5145001D01*
X1143000Y5194300D01*
X1143000Y5651500D01*
X1282011Y5014998D02*
G01*
X966701Y5014998D01*
X889000Y5092700D01*
X889000Y5651500D01*
X1511988Y5080000D02*
G01*
X1727200Y5080000D01*
X1905000Y5257800D01*
X1905000Y5651500D01*
D12*
G01*
X1511985Y5015001D03*
G01*
X1511985Y5080000D03*
G01*
X1511985Y5144998D03*
G01*
X1282014Y5144998D03*
G01*
X1282014Y5015001D03*
D13*
G01*
X1905000Y5651500D03*
G01*
X1651000Y5651500D03*
G01*
X1397000Y5651500D03*
G01*
X1143000Y5651500D03*
G36*
X810260Y5730239D02*
G01*
X967739Y5730239D01*
X967739Y5572760D01*
X810260Y5572760D01*
G37*
M02*
